# xmcd CD database file
#
# Track frame offsets:
#	150
#	16970
#	31112
#	50573
#	67231
#	87264
#	104831
#	124269
#	140980
#	157079
#
# Disc length: 2346 seconds
#
# Revision: 0
# Processed by: cddbd v1.4PL0 Copyright (c) Steve Scherf et al.
# Submitted via: CDex 1.51
#
DISCID=9609280a
DTITLE=mcguffey lane - call me lucky
DYEAR=2002
DGENRE=Country
TTITLE0=kid with the arrow
TTITLE1=the good in goodbye
TTITLE2=there's only one of us now
TTITLE3=when i sing of you
TTITLE4=what you've got
TTITLE5=trains make me lonesome
TTITLE6=call my lucky
TTITLE7=baby don't call me baby (anymore)
TTITLE8=into the mystic
TTITLE9=the good times tonight
EXTD=YEAR: 2002
EXTT0=
EXTT1=
EXTT2=
EXTT3=
EXTT4=
EXTT5=
EXTT6=
EXTT7=
EXTT8=
EXTT9=
PLAYORDER=
